<?xml version="1.0" encoding="UTF-8"?>
<!DOCTYPE svg PUBLIC "-//W3C//DTD SVG 1.1//EN" "http://www.w3.org/Graphics/SVG/1.1/DTD/svg11.dtd">
<!-- Creator: CorelDRAW 2020 (64 Bit) -->
<svg xmlns="http://www.w3.org/2000/svg" xml:space="preserve" width="195mm" height="55mm" version="1.1" style="shape-rendering:geometricPrecision; text-rendering:geometricPrecision; image-rendering:optimizeQuality; fill-rule:evenodd; clip-rule:evenodd"
viewBox="0 0 19500 5500"
 xmlns:xlink="http://www.w3.org/1999/xlink"
 xmlns:xodm="http://www.corel.com/coreldraw/odm/2003">
 <defs>
  <style type="text/css">
   <![CDATA[
    .fil1 {fill:red}
    .fil0 {fill:red;fill-rule:nonzero}
   ]]>
  </style>
 </defs>
 <g id="Camada_x0020_1">
  <metadata id="CorelCorpID_0Corel-Layer"/>
  <g id="_1471676004976">
   <path class="fil0" d="M9702.12 1535.92l-302.15 2450.9 -564.15 0 181.2 -1469.84 -699.16 1469.84 -455.28 0 -339.63 -1473.33 -181.63 1473.33 -564.15 0 302.14 -2450.9 666.43 0 440.74 1696.78 852.51 -1696.78 663.13 0zm741.6 478.31l-61.11 495.77 755.5 0 -56.82 460.85 -755.5 0 -66.28 537.66 854.47 0 -58.97 478.31 -1418.62 0 302.14 -2450.9 1418.63 0 -58.97 478.31 -854.47 0zm2303.21 1539.67l-864.37 0 -191.93 432.92 -590.54 0 1140.12 -2450.9 653.22 0 535.84 2450.9 -597.14 0 -85.2 -432.92zm-88.34 -460.86l-176.42 -897.26 -394.33 897.26 570.75 0zm1476.31 432.93l739 0 -56.81 460.85 -1303.16 0 302.15 -2450.9 564.15 0 -245.33 1990.05zm1618.3 485.29c-169.35,0 -317.53,-29.1 -444.52,-87.28 -126.99,-58.19 -223.59,-144.31 -289.81,-258.36 -66.21,-114.05 -91.63,-251.37 -76.22,-411.98l600.43 0c-2.39,90.78 18.77,160.02 63.47,207.74 44.7,47.71 107.75,71.57 189.13,71.57 83.57,0 152.07,-20.37 205.48,-61.1 53.4,-40.73 84.55,-97.17 93.45,-169.33 7.45,-60.51 -5.62,-110.55 -39.23,-150.12 -33.61,-39.57 -76.88,-72.16 -129.81,-97.76 -52.93,-25.6 -129.06,-54.7 -228.43,-87.28 -143.53,-48.88 -259.57,-97.76 -348.12,-146.64 -88.55,-48.88 -161.04,-121.03 -217.45,-216.46 -56.42,-95.43 -75.16,-219.95 -56.22,-373.57 28.12,-228.1 128.22,-406.74 300.3,-535.92 172.09,-129.17 383.49,-193.76 634.23,-193.76 255.13,0 452.81,64.59 593.05,193.76 140.23,129.18 201.64,308.99 184.24,539.41l-610.34 0c5.35,-79.13 -14.46,-141.4 -59.46,-186.78 -44.99,-45.39 -107.07,-68.08 -186.25,-68.08 -68.18,0 -125.54,19.2 -172.06,57.6 -46.52,38.41 -74.24,93.69 -83.13,165.84 -9.76,79.14 17.84,140.82 82.77,185.04 64.93,44.22 169.01,91.94 312.26,143.14 142.96,53.54 258.17,104.74 345.62,153.62 87.45,48.88 159.53,119.87 216.23,212.97 56.7,93.1 76.02,212.97 57.94,359.61 -17.22,139.65 -66.4,266.5 -147.54,380.55 -81.15,114.05 -189.66,204.82 -325.55,272.32 -135.88,67.5 -290.7,101.25 -464.46,101.25z"/>
   <path class="fil1" d="M4540.65 4695.37c45.38,-21.98 616.53,-642.21 704.9,-734.34 192.85,-201.06 777.73,-797.21 914.14,-1002.15 215.67,-324.01 295.6,-805.74 173.31,-1181.38 -212.02,-651.25 -763.54,-1041.57 -1419.11,-944.21 -181.32,26.93 -343.59,110.83 -364.78,112.86 -35.27,3.37 -121.9,-46.41 -166.05,-61.81 -380.12,-132.54 -790.75,-66.17 -1120.96,167.7 -239.05,169.3 -411.01,401 -502.9,700.61 -91.49,298.35 -82.19,580.06 5.17,868.66 39.19,129.46 95.07,233.67 154.15,329.46 106.19,172.16 521.84,573.62 682.25,755.08 150.69,170.47 311.05,324.42 464.01,493.76l475.87 495.76zm0 -444.08l394.25 -407.72c21.14,-20.69 22,-29.23 40.22,-51.24l829.77 -868.47c253.92,-241.85 351.39,-708.44 234.38,-1083.56 -161.48,-517.68 -722.12,-835.86 -1238.19,-657.57 -55.38,19.13 -256.13,126.74 -259.39,126.6 -48.2,-2.08 -387.98,-319.21 -933.37,-100.01 -463.13,186.13 -739.94,768.62 -556.95,1331.92 111.97,344.65 384.87,508.29 511.14,688.97l780.26 815.76c47.34,50 149.61,175.46 197.88,205.32zm-43.31 -1343.9c-14.96,36.52 -15.75,29.06 -40.96,54.73l-86.36 108.5c-13.01,17.76 -29.88,38 -44.02,58.67 -137.44,200.88 -112.66,430.29 21.83,618.1 31.55,44.07 162.35,189.04 192.82,208.83 40.48,-22.51 79.4,-73.75 116.97,-113.14l101.71 -126.93c126.53,-202.78 140.07,-413.61 18.98,-622.73 -20.86,-36.03 -28.27,-37.67 -48.05,-66.7 -79.81,-117.15 -74.94,-87.25 -162.08,-180.71 -20.05,-21.5 -35.54,-31.6 -58.53,-55.14 -38.22,-39.16 -78.21,-72.36 -113.8,-114.26 -34,-40.03 -11.7,-31.01 -60.05,-54.3 -120.17,-57.88 -202.35,73.72 -405.16,-132.84 -27.93,-28.46 -388.51,-419.92 -401.9,-455.28 -15.79,-41.68 -0.19,-42.23 -0.15,-42.34 33.62,-8.75 39.4,10.98 119.78,81.43l164.57 165.46c21.04,22.68 38.45,32.54 62.08,52.13 47.52,39.4 55.79,87.73 138.47,73.11 3.15,-71.79 -30.08,-101 -70.26,-134.15 -58.01,-47.84 -206.49,-222.21 -275.25,-294.9 -28.65,-30.29 -43.25,-30.99 -28.67,-72.48 34.63,-9.03 84.29,41.49 125.52,76.17l236.23 195.26c39.94,34.86 66.7,84.5 139.01,70.35 22.48,-74.65 -73.61,-137.04 -130.41,-185.41l-255.25 -246.65c-1.1,-1.88 -2.99,-4.92 -3.8,-6.9 -17.67,-43.33 -4.47,-23.35 -1.6,-32.47 59.43,-15.03 449.92,327.3 477.11,350.18 77.87,65.54 157.93,133.73 173.84,252.96 16.99,127.36 -51.55,142.32 140.69,287.32 34.7,-20.64 95.87,-76.19 115.26,-107.02 39.54,-62.89 46.38,-93.97 38.87,-180.18 -19.64,-225.41 201.69,-416.8 380.42,-488.96 294.21,-118.79 479.56,39.53 356.15,365.72 -64.63,170.84 -252.78,412.15 -458.24,402.12 -162.12,-7.9 -129.44,-48.4 -301.6,114.12 44.32,83.25 249.88,213.12 348.06,237.35 182.89,45.13 347.39,12.58 487.38,-64.54 109.11,-60.11 225.46,-197.87 286.1,-307.76 165.63,-300.12 127.8,-652.1 -62.51,-931 -26.59,-38.97 -109.28,-125.87 -145.34,-151.37 -200.05,-141.51 -423.56,-219.78 -677.14,-146.67 -193.75,55.86 -254.35,126.58 -367.41,215.3 -50.74,-71.28 -247.4,-183.55 -358.03,-213.89 -268.75,-73.71 -555.82,9.02 -750.46,206.93 -412.11,419.05 -256.79,1114.07 135.82,1312.06 139.66,70.44 307.42,110.52 482.33,70.34 185.1,-42.52 270.06,-159.17 447.03,-48.42z"/>
  </g>
 </g>
</svg>
